<?xml version="1.0" encoding="UTF-8"?>
<svg width="27px" height="12px" viewBox="0 0 27 12" version="1.1" xmlns="http://www.w3.org/2000/svg" xmlns:xlink="http://www.w3.org/1999/xlink">
    <title>Combined Shape</title>
    <defs>
        <path d="M754.010469,937.244078 C754.579984,936.918641 755.503349,936.918641 756.072864,937.244078 L756.072864,937.244078 L764.822864,942.244078 C764.951293,942.317466 765.050761,942.401137 765.121267,942.490452 C765.127308,942.498137 765.133239,942.505951 765.138965,942.513826 C765.146447,942.524131 765.15366,942.534676 765.160484,942.545285 C765.18652,942.585604 765.207198,942.627355 765.222102,942.670295 C765.234707,942.706907 765.243128,942.744078 765.24718,942.781376 L765.25,942.833333 C765.25,942.850931 765.249045,942.868401 765.247164,942.885727 C765.243128,942.922588 765.234707,942.95976 765.221917,942.996534 C765.206885,943.040212 765.185649,943.082815 765.158908,943.123887 C765.152673,943.133412 765.146278,943.142731 765.139578,943.151996 C765.132339,943.161991 765.124606,943.172091 765.116537,943.182084 C765.085393,943.22077 765.048892,943.258236 765.006966,943.29425 C764.990123,943.308612 764.972071,943.323114 764.953246,943.337261 C764.913828,943.366945 764.870324,943.395469 764.822864,943.422589 L764.822864,943.422589 L756.072864,948.422589 C755.503349,948.748026 754.579984,948.748026 754.010469,948.422589 C753.440955,948.097152 753.440955,947.569515 754.010469,947.244078 L754.010469,947.244078 L760.271,943.666 L740.458333,943.666667 C739.703257,943.666667 739.08221,943.33875 739.007529,942.918537 L739,942.833333 C739,942.373096 739.652918,942 740.458333,942 L740.458333,942 L760.27,941.999 L754.010469,938.422589 C753.476549,938.117492 753.443179,937.634679 753.910359,937.307368 Z" id="path-1"></path>
    </defs>
    <g id="Wireframe" stroke="none" stroke-width="1" fill="none" fill-rule="evenodd">
        <g id="Project" transform="translate(-739.000000, -937.000000)">
            <mask id="mask-2" fill="white">
                <use xlink:href="#path-1"></use>
            </mask>
            <use id="Combined-Shape" fill="#A29E9F" fill-rule="nonzero" xlink:href="#path-1"></use>
        </g>
    </g>
</svg>