<?xml version="1.0" encoding="UTF-8"?>
<svg width="618px" height="618px" viewBox="0 0 618 618" version="1.1" xmlns="http://www.w3.org/2000/svg" xmlns:xlink="http://www.w3.org/1999/xlink">
    <title>Assign_money</title>
    <g id="Assign_money" stroke="none" stroke-width="1" fill="none" fill-rule="evenodd">
        <rect fill="#FFFFFF" x="0" y="0" width="618" height="618"></rect>
        <g id="Assign-money" transform="translate(179.000000, 129.000000)">
            <path d="M218.761676,145.60003 L219.213616,146.054513 C234.026077,161.034796 238.782494,174.266201 233.482865,185.748729 C228.129705,197.347242 228.129705,204.930885 233.482865,208.499658 L233.482865,208.499658 L257.076597,272.846198 L257.269138,273.383048 C261.354883,285.034259 259.8543,297.931328 253.177361,308.342146 C231.207284,342.598331 189.846913,359.726424 129.096248,359.726424 L130.434001,359.72203 L130.434538,359.726424 L129.765001,359.72403 L129.096248,359.726424 L129.096001,359.72203 L128.617835,359.721285 C68.8586053,359.382149 28.103802,342.255769 6.35342542,308.342146 C-0.323513979,297.931328 -1.82409682,285.034259 2.26164869,273.383048 L2.45418967,272.846198 L26.047921,208.499658 C31.4010809,204.930885 31.4010809,197.347242 26.047921,185.748729 C20.7482928,174.266201 25.5047091,161.034796 40.3171701,146.054513 L40.7691106,145.60003 L218.761676,145.60003 Z" id="Combined-Shape" stroke="#000000" stroke-width="1.33828996" fill="#FFFFFF"></path>
            <g id="$" transform="translate(80.244237, 165.737353) rotate(-16.000000) translate(-80.244237, -165.737353) translate(51.244237, 104.237353)">
                <rect id="Rectangle" stroke="#000000" stroke-width="1.07063197" fill="#1BC8D4" x="0.535315985" y="0.535315985" width="56.7434944" height="120.981413"></rect>
                <text transform="translate(28.907063, 54.689591) rotate(-360.000000) translate(-28.907063, -54.689591) " font-family="DaysOne-Regular, Days One" font-size="34.260223" font-weight="normal" letter-spacing="0.214126396" fill="#FFFFFF">
                    <tspan x="15.4589219" y="67.1895911">$</tspan>
                </text>
            </g>
            <g id="$" transform="translate(99.422446, 82.700402)">
                <rect id="Rectangle" stroke="#000000" stroke-width="1.07063197" fill="#1BC8D4" x="0.535315985" y="0.535315985" width="56.7434944" height="120.981413"></rect>
                <text transform="translate(28.907063, 54.689591) rotate(-360.000000) translate(-28.907063, -54.689591) " font-family="DaysOne-Regular, Days One" font-size="34.260223" font-weight="normal" letter-spacing="0.214126396" fill="#FFFFFF">
                    <tspan x="15.4589219" y="67.1895911">$</tspan>
                </text>
            </g>
            <g id="$" transform="translate(177.970124, 165.500635) rotate(-345.000000) translate(-177.970124, -165.500635) translate(148.970124, 104.000635)">
                <rect id="Rectangle" stroke="#000000" stroke-width="1.07063197" fill="#1BC8D4" x="0.535315985" y="0.535315985" width="56.7434944" height="120.981413"></rect>
                <text transform="translate(28.907063, 54.689591) rotate(-360.000000) translate(-28.907063, -54.689591) " font-family="DaysOne-Regular, Days One" font-size="34.260223" font-weight="normal" letter-spacing="0.214126396" fill="#FFFFFF">
                    <tspan x="15.4589219" y="67.1895911">$</tspan>
                </text>
            </g>
            <path d="M45.4043922,168.350959 C57.9824462,188.612381 85.8900033,198.743093 129.127064,198.743093 C172.364124,198.743093 200.664745,188.612381 214.028928,168.350959 L250.880635,275.414156 L9.98844148,284.782186 L45.4043922,168.350959 Z" id="Path-6" fill="#FFFFFF"></path>
            <path d="M46.1222705,167.012669 C58.7003244,188.425309 86.6078815,199.131628 129.844942,199.131628 C173.082002,199.131628 201.382624,188.425309 214.746806,167.012669" id="Path-6" stroke="#000000" stroke-width="1.33828996" stroke-linecap="round"></path>
            <g id="Arrow" transform="translate(9.988441, 37.198543)" stroke="#1BC8D4" stroke-width="1.33828996">
                <path d="M50.8550186,50.8550186 C44.6096654,36.5799257 37.9182156,27.6579926 30.7806691,24.0892193 C23.6431227,20.5204461 13.8289963,18.2899628 1.33828996,17.3977695" id="Path-8"></path>
                <path d="M9.36802974,40.1486989 C9.11443478,34.9444027 8.22224147,30.4834361 6.69144981,26.7657993 C5.16065816,23.0481624 2.93017489,19.9254858 0,17.3977695 L28.1040892,0" id="Path-9"></path>
            </g>
            <g id="Arrow" transform="translate(120.459221, 36.234789) rotate(35.000000) translate(-120.459221, -36.234789) translate(94.959221, 10.734789)" stroke="#1BC8D4" stroke-width="1.33828996">
                <path d="M50.8550186,50.8550186 C44.6096654,36.5799257 37.9182156,27.6579926 30.7806691,24.0892193 C23.6431227,20.5204461 13.8289963,18.2899628 1.33828996,17.3977695" id="Path-8"></path>
                <path d="M9.36802974,40.1486989 C9.11443478,34.9444027 8.22224147,30.4834361 6.69144981,26.7657993 C5.16065816,23.0481624 2.93017489,19.9254858 0,17.3977695 L28.1040892,0" id="Path-9"></path>
            </g>
            <g id="Arrow" transform="translate(225.380635, 62.698543) scale(-1, 1) translate(-225.380635, -62.698543) translate(199.880635, 37.198543)" stroke="#1BC8D4" stroke-width="1.33828996">
                <path d="M50.8550186,50.8550186 C44.6096654,36.5799257 37.9182156,27.6579926 30.7806691,24.0892193 C23.6431227,20.5204461 13.8289963,18.2899628 1.33828996,17.3977695" id="Path-8"></path>
                <path d="M9.36802974,40.1486989 C9.11443478,34.9444027 8.22224147,30.4834361 6.69144981,26.7657993 C5.16065816,23.0481624 2.93017489,19.9254858 0,17.3977695 L28.1040892,0" id="Path-9"></path>
            </g>
            <g id="Bond" transform="translate(95.018587, 202.081784)" stroke="#000000" stroke-width="1.33828996">
                <path d="M34.8809881,16.0594796 C25.6292021,14.6396369 18.045559,15.5318302 12.1300588,18.7360595 C3.25680842,23.5424034 -4.24425424,34.2815177 2.76202903,33.4572491 C7.43288454,32.9077367 18.1392042,27.1084802 34.8809881,16.0594796 Z" id="Path-14"></path>
                <path d="M68.1721342,7.3454037 C58.9203482,5.92556103 51.3367051,6.81775433 45.4212049,10.0219836 C36.5479545,14.8283276 34.626172,17.7135482 37.3881497,22.490453 C38.3670825,24.1835401 43.4607866,29.1024862 55.58749,22.8407654 C63.6719589,18.6662848 67.8668403,13.5011643 68.1721342,7.3454037 Z" id="Path-14" transform="translate(52.195706, 16.310380) scale(-1, -1) rotate(26.000000) translate(-52.195706, -16.310380) "></path>
                <path d="M34.8809881,16.0594796 C32.6994483,22.2906355 30.0228684,28.089892 26.8512484,33.4572491 C23.6796283,38.8246061 20.5569517,42.839476 17.4832186,45.5018587" id="Path-15"></path>
                <line x1="48.2638878" y1="16.0594796" x2="34.8809881" y2="45.5018587" id="Path-15" transform="translate(41.572438, 30.780669) scale(-1, 1) translate(-41.572438, -30.780669) "></line>
            </g>
        </g>
    </g>
</svg>