<?xml version="1.0" encoding="UTF-8"?>
<svg width="618px" height="618px" viewBox="0 0 618 618" version="1.1" xmlns="http://www.w3.org/2000/svg" xmlns:xlink="http://www.w3.org/1999/xlink">
    <title>Check_the_expense</title>
    <g id="Check_the_expense" stroke="none" stroke-width="1" fill="none" fill-rule="evenodd">
        <rect fill="#FFFFFF" x="0" y="0" width="618" height="618"></rect>
        <g id="Check-the-expense" transform="translate(177.000000, 129.000000)">
            <rect id="Rectangle" fill="#1BC8D4" x="63.1578947" y="18.9473684" width="185.263158" height="324.210526"></rect>
            <line x1="120" y1="90.5263158" x2="120" y2="280" id="Path-12" stroke="#FFFFFF" stroke-width="4.21052632" stroke-linecap="round"></line>
            <polyline id="Path-13" stroke="#FFFFFF" stroke-width="4.21052632" stroke-linecap="round" points="98.9473684 246.315789 120 288.421053 141.052632 246.315789"></polyline>
            <line x1="200" y1="98.9473684" x2="200" y2="288.421053" id="Path-12" stroke="#FFFFFF" stroke-width="4.21052632" stroke-linecap="round" transform="translate(200.000000, 193.684211) scale(1, -1) translate(-200.000000, -193.684211) "></line>
            <polyline id="Path-13" stroke="#FFFFFF" stroke-width="4.21052632" stroke-linecap="round" transform="translate(200.000000, 111.578947) scale(1, -1) translate(-200.000000, -111.578947) " points="178.947368 90.5263158 200 132.631579 221.052632 90.5263158"></polyline>
            <path d="M262.105263,1.05263158 L262.105263,358.947368 L49.4736842,358.947368 L49.4736842,1.05263158 L262.105263,1.05263158 Z M106.315678,17.8943592 L62.1052632,17.8947461 L62.1052632,344.210526 L249.473684,344.210526 L249.473684,17.8947461 L205.262375,17.8943592 L205.263112,34.7368421 L106.315783,34.7368421 L106.315678,17.8943592 Z" id="Combined-Shape" stroke="#000000" stroke-width="2.10526316" fill="#FFFFFF"></path>
            <path d="M0,195.789474 L32.8110537,137.074957 C37.2498733,129.131806 45.6375693,124.210526 54.7368421,124.210526 C64.0041001,124.210526 71.980472,130.757679 73.7868978,139.847173 C77.4928692,158.494606 76.0551314,177.14204 69.4736842,195.789474 C61.0526316,219.649123 46.3157895,250.526316 25.2631579,288.421053" id="Path-10" stroke="#000000" stroke-width="2.10526316" fill="#FFFFFF"></path>
            <path d="M42.1052632,128.421053 C44.2263933,134.162023 45.6299021,139.776059 46.3157895,145.263158 C46.8441135,149.48975 46.9654811,153.791657 46.6798923,158.168879 C46.5354118,160.383152 44.6972809,162.105263 42.4782992,162.105263 L18.9473684,162.105263 L18.9473684,162.105263 C21.9591567,156.703747 25.4679286,151.089711 29.4736842,145.263158 C33.4794398,139.436604 37.6899661,133.822569 42.1052632,128.421053 Z" id="Path-11" fill="#000000"></path>
        </g>
    </g>
</svg>