<?xml version="1.0" encoding="UTF-8"?>
<svg width="330px" height="359px" viewBox="0 0 330 359" version="1.1" xmlns="http://www.w3.org/2000/svg" xmlns:xlink="http://www.w3.org/1999/xlink">
    <title>Feedback-1</title>
    <g id="Website" stroke="none" stroke-width="1" fill="none" fill-rule="evenodd">
        <g id="Research" transform="translate(-95.000000, -3064.000000)">
            <g id="Feedback-1" transform="translate(95.000000, 3064.000000)">
                <path d="M9,0 L321,0 C325.970563,-9.13077564e-16 330,4.02943725 330,9 L330,182 C330,186.970563 325.970563,191 321,191 L27,191 L27,191 L15.7867344,203.87449 C12.5221645,207.6227 6.83718319,208.014768 3.0889733,204.750198 C1.12651348,203.040959 -3.87611422e-14,200.565914 0,197.963463 L0,9 C-6.08718376e-16,4.02943725 4.02943725,9.13077564e-16 9,0 Z" id="Rectangle" fill="#F3F3F3"></path>
                <text id="“-When-I-saw-the-tot" font-family="Gilroy" font-size="18" font-weight="normal" line-spacing="24" letter-spacing="0.655714286" fill="#000000">
                    <tspan x="31" y="45">“ When I saw the total amount </tspan>
                    <tspan x="31" y="69">of money, I would think I still </tspan>
                    <tspan x="31" y="93">have a lot of money, which </tspan>
                    <tspan x="31" y="117">would not alert myselt to </tspan>
                    <tspan x="31" y="141">spend within budget. “</tspan>
                </text>
                <text id="The-budget-system-wi" font-family="Gilroy" font-size="18" font-weight="normal" line-spacing="24" letter-spacing="0.655714286" fill="#1BC8D4">
                    <tspan x="31" y="236">The budget system will not </tspan>
                    <tspan x="31" y="260">constraint or affect user to </tspan>
                    <tspan x="31" y="284">spend money within budget.</tspan>
                </text>
                <text id="Error-rating-0.2" font-family="Gilroy" font-size="18" font-weight="normal" line-spacing="24" letter-spacing="0.655714286" fill="#000000">
                    <tspan x="31" y="322">Error rating 0.2</tspan>
                </text>
                <text id="Priority-1" font-family="Gilroy" font-size="18" font-weight="normal" line-spacing="24" letter-spacing="0.655714286" fill="#000000">
                    <tspan x="31" y="348">Priority 1</tspan>
                </text>
            </g>
        </g>
    </g>
</svg>