<?xml version="1.0" encoding="UTF-8"?>
<svg width="800px" height="800px" viewBox="0 0 800 800" version="1.1" xmlns="http://www.w3.org/2000/svg" xmlns:xlink="http://www.w3.org/1999/xlink">
    <title>Group</title>
    <g id="Daily-Icon" stroke="none" stroke-width="1" fill="none" fill-rule="evenodd">
        <g id="Post" transform="translate(-140.000000, -140.000000)">
            <g id="Group" transform="translate(140.000000, 140.000000)">
                <circle id="Oval" stroke="#272727" stroke-width="18" fill-opacity="0" fill="#3B5998" cx="400" cy="400" r="391"></circle>
                <path d="M404.444444,88.7777778 C439.226651,88.7777778 470.659894,107.419973 496.405241,135.505806 C526.720081,168.576541 549.049845,214.580578 559.814782,255.487338 C561.954665,263.618893 564.101606,272.812845 566.384985,282.597662 C576.181019,324.575977 587.936634,378.614476 614.812899,402.113485 C621.438983,407.906939 629.194419,413.463779 637.23115,419.241758 C668.457203,441.691618 702.333333,467.437306 702.333333,515.555556 C702.333333,551.16978 686.119122,564.01753 671.130746,575.020689 L670.21477,575.692225 C669.524588,576.197763 668.832976,576.696448 668.144965,577.193527 L667.262759,577.832158 C660.031898,583.082644 653.444444,588.405111 653.444444,600 C653.444444,618.122872 645.323856,624.913796 624.955272,637.24002 C617.34216,641.847161 607.864392,647.573929 596.511111,656.088889 C593.196337,658.574969 589.989018,661.424266 586.72008,664.314329 C586.395101,664.601642 586.069622,664.888963 585.743544,665.176106 L584.763415,666.036815 C569.049474,679.793655 551.730083,692.711594 521.971954,684.209271 C507.996418,680.216261 494.192894,675.007303 481.517236,670.214122 C464.563661,663.803285 449.842359,657.888889 440.000887,657.888889 L440.000887,657.888889 L438.919991,657.888995 C421.559847,657.894052 391.887744,658.116844 353.957161,670.760372 C339.674147,675.521377 327.821616,683.345433 316.524308,690.703602 C294.55729,705.011173 274.432635,717.118155 246.936515,711.007906 C203.668092,701.392701 177.613996,675.554971 165.430389,653.195102 C165.198936,652.77033 164.96867,652.347916 164.739621,651.927738 C151.352905,627.370416 142.111111,609.947987 142.111111,577.777778 C142.111111,553.895934 150.405437,533.448498 159.79416,510.975584 C170.298943,485.831261 182.111111,457.890846 182.111111,417.777778 C182.111111,319.031141 197.59439,232.292014 237.123787,172.997918 C272.136317,120.479124 325.748397,88.7777778 404.444444,88.7777778 Z" id="Oval" stroke="#272727" stroke-width="18" fill-opacity="0" fill="#272727"></path>
                <path d="M280,284.444444 C280,293.169086 282.371152,301.729698 286.859943,309.211017 L296.376752,325.072364 C303.109939,336.294342 306.666667,349.135259 306.666667,362.222222 C306.666667,375.338948 310.00948,388.239287 316.379525,399.705368 L319.605203,405.511588 C325.717633,416.513961 334.202582,426.017717 344.444444,433.333333 C354.688084,440.650219 366.422538,445.612179 378.807931,447.864068 L390.859558,450.055273 C401.835978,452.050986 410.627515,460.287839 413.333333,471.111111 L414.005001,473.797783 C416.510728,483.820689 417.777778,494.11307 417.777778,504.444444 C417.777778,514.404499 413.821161,523.956616 406.778339,530.999439 L398.967853,538.809925 C393.937266,543.840512 391.111111,550.663453 391.111111,557.777778 C391.111111,564.970346 393.559006,571.948757 398.052167,577.565209 L400,580 C405.754054,587.192568 408.888889,596.129295 408.888889,605.340276 L408.888889,616.728587 C408.888889,623.264154 407.367239,629.709966 404.444444,635.555556 C402.185887,640.07267 404.01681,645.565437 408.533924,647.823994 C408.760626,647.937345 408.991943,648.041222 409.227276,648.135355 L411.111111,648.888889 C418.451082,651.824877 426.283865,653.333333 434.189255,653.333333 L435.555556,653.333333 C444.323939,653.333333 452.971904,651.291826 460.814585,647.370485 L462.222222,646.666667 C469.974987,642.790284 473.913896,633.980583 471.633233,625.61815 L467.612939,610.877073 C464.063444,597.862259 457.668166,585.798045 448.888889,575.555556 L442.786571,568.436184 C438.120411,562.992331 435.555556,556.058867 435.555556,548.888889 C435.555556,541.5579 437.044619,534.303297 439.932437,527.565055 L442.576461,521.395665 C446.695669,511.784179 453.521485,503.578269 462.222222,497.777778 C470.552151,492.224492 475.555556,482.875545 475.555556,472.864217 L475.555556,471.111111 C475.555556,459.54886 479.168257,448.275551 485.888679,438.866961 L487.940937,435.993799 C494.479785,426.839412 500.012908,417.006918 504.444444,406.666667 C508.874792,396.329189 512.126662,385.525583 514.138558,374.460156 L515.946043,364.518986 C518.624498,349.787482 518.492006,334.682255 515.555556,320 L514.034638,312.395411 C512.094281,302.693627 508.869139,293.293833 504.444444,284.444444 C500.002505,275.560566 495.141223,266.892623 489.87702,258.469899 L477.696788,238.981528 C476.269329,236.697594 474.862661,234.400731 473.476957,232.091224 L465.652194,219.049953 C463.52425,215.503379 459.691536,213.333333 455.555556,213.333333 C451.873657,213.333333 448.888889,210.348565 448.888889,206.666667 L448.888889,200 C448.888889,191.46281 445.497503,183.275281 439.460798,177.238576 L434.523409,172.301186 C429.292178,167.069955 423.69624,162.216625 417.777778,157.777778 C415.323179,155.936829 411.840949,156.43429 410,158.888889 C409.278766,159.850534 408.888889,161.020165 408.888889,162.222222 L408.888889,186.666667 L408.888889,204.444444 C408.888889,215.1379 402.255632,224.709694 392.243037,228.464417 L373.333333,235.555556 L355.555556,242.222222 C343.754494,246.64762 332.583607,252.599011 322.327685,259.92467 L317.516446,263.361269 C310.460003,268.401585 302.005022,271.111111 293.333333,271.111111 C285.969537,271.111111 280,277.080648 280,284.444444 Z" id="Path" stroke="#272727" stroke-width="18" fill-opacity="0" fill="#FFFDF9"></path>
                <circle id="Oval" fill="#272727" cx="349" cy="277.666667" r="11"></circle>
                <circle id="Oval" fill="#272727" cx="402.111111" cy="255.444444" r="11"></circle>
                <path d="M373.333333,271.111111 L373.333333,284.444444 C373.145466,285.884764 374.10181,287.225672 375.524788,287.517125 L382.222222,288.888889 L382.222222,288.888889" id="Path-5" stroke="#272727" stroke-width="18" stroke-linecap="round"></path>
                <path d="M351.111111,315.555556 C376.923032,315.555556 401.883504,306.322076 421.481375,289.523901 L422.222222,288.888889 L422.222222,288.888889" id="Path-6" stroke="#272727" stroke-width="18" stroke-linecap="round"></path>
            </g>
        </g>
    </g>
</svg>