<?xml version="1.0" encoding="UTF-8"?>
<svg width="500px" height="500px" viewBox="0 0 500 500" version="1.1" xmlns="http://www.w3.org/2000/svg" xmlns:xlink="http://www.w3.org/1999/xlink">
    <title>Research-what-2</title>
    <defs>
        <filter x="-11.1%" y="-68.2%" width="122.1%" height="236.4%" filterUnits="objectBoundingBox" >
            <feGaussianBlur stdDeviation="10" in="SourceGraphic"></feGaussianBlur>
        </filter>
    </defs>
    <g id="Research-what-2" stroke="none" stroke-width="1" fill="none" fill-rule="evenodd">
        <rect fill="#FFFFFF" x="0" y="0" width="500" height="500"></rect>
        <g id="Background" transform="translate(106.000000, 66.000000)">
            <path d="M30,0 L259,0 C275.568542,-3.04359188e-15 289,13.4314575 289,30 L289,368 L289,368 L0,368 L0,30 C-2.02906125e-15,13.4314575 13.4314575,3.04359188e-15 30,0 Z"  fill="#DBDBDF"></path>
            <path d="M259,0 C275.568542,-3.04359188e-15 289,13.4314575 289,30 L289,368 L281,368 L281,32 C281,18.8777143 270.468663,8.21515429 257.396884,8.00321531 L257,8 L186.958888,8.00046689 C186.450515,14.1597751 181.290505,19 175,19 L114,19 C107.709495,19 102.549485,14.1597751 102.041112,8.00046689 L31,8 C17.8777143,8 7.21515429,18.5313372 7.00321531,31.6031161 L7,32 L7,368 L0,368 L0,30 C-2.02906125e-15,13.4314575 13.4314575,3.04359188e-15 30,0 L259,0 Z" id="Combined-Shape" fill="#F3F3F3"></path>
        </g>
        <g id="Group" transform="translate(129.000000, 188.000000)" opacity="0.52187965">
            <g id="Nav/-Quick-add">
                <path d="M208.4,0.4 C210.94051,0.4 213.24051,1.42974508 214.905382,3.09461761 C216.570255,4.75949015 217.6,7.05949015 217.6,9.6 L217.6,9.6 L217.6,53.4 C217.6,55.9405098 216.570255,58.2405098 214.905382,59.9053824 C213.24051,61.5702549 210.94051,62.6 208.4,62.6 L208.4,62.6 L9.6,62.6 C7.05949015,62.6 4.75949015,61.5702549 3.09461761,59.9053824 C1.42974508,58.2405098 0.4,55.9405098 0.4,53.4 L0.4,53.4 L0.4,9.6 C0.4,7.05949015 1.42974508,4.75949015 3.09461761,3.09461761 C4.75949015,1.42974508 7.05949015,0.4 9.6,0.4 L9.6,0.4 Z"  stroke="#F3F3F3" stroke-width="0.8" fill="#FFFFFF"></path>
                <g id="Icon/-Color/-Color" transform="translate(15.227941, 23.924051)">
                    <rect  fill-opacity="0" fill="#FFFFFF" x="0" y="0" width="19.2352941" height="19.1392405"></rect>
                    <path d="M10.0183824,6.37974684 L10.542147,6.38360583 C10.7149211,6.38618029 10.8858299,6.39004467 11.0547191,6.39520438 L11.0547191,6.39520438 L11.5551741,6.41457482 L12.0425874,6.44174951 L12.5160345,6.47676078 L12.9745907,6.519641 C13.0497245,6.52744524 13.1241993,6.5355787 13.1979958,6.54404206 L13.1979958,6.54404206 L13.6324822,6.59878632 C13.7034888,6.60857195 13.7737786,6.61868882 13.8433324,6.6291376 L13.8433324,6.6291376 L14.2516687,6.69581869 C16.3141806,7.06097211 17.6323529,7.74639146 17.6323529,8.7721519 L17.6323529,8.7721519 L17.6323529,11.9620253 C17.6323529,12.9467553 16.4175253,13.617827 14.4955606,13.9930016 L14.2516687,14.0383585 L13.8433324,14.1050396 L13.6324822,14.1353909 L13.4173315,14.1637547 L12.9745907,14.2145362 L12.5160345,14.2574164 L12.0425874,14.2924277 L11.5551741,14.3196024 L11.4312469,14.3251754 L11.306519,14.3302611 L10.7998899,14.3457416 L10.6713754,14.3483986 L10.542147,14.3505714 L10.0183824,14.3544304 L9.88320465,14.3541723 L9.74870895,14.3533976 L9.21786059,14.345119 L9.08701071,14.3417509 L8.95693717,14.3378621 L8.44472074,14.3170852 L8.31876468,14.3105822 L8.19367928,14.3035543 L7.70235875,14.2701797 L7.46233122,14.2503249 L6.99417053,14.2042528 L6.54270747,14.1496605 L6.10894826,14.0865035 L5.89902204,14.0516995 L5.6938991,14.0147377 L5.29856617,13.9343187 C3.71307563,13.5853889 2.65435819,13.0153672 2.43830237,12.2103533 L2.41123708,12.0812909 L2.40441176,11.9620253 L2.40441176,8.7721519 L2.41070227,8.650693 C2.5110565,7.69207034 3.80508463,7.04636597 5.78509601,6.69581869 L5.78509601,6.69581869 L6.19343232,6.6291376 C6.33253988,6.60824003 6.47459153,6.58867012 6.61943318,6.57042249 L6.61943318,6.57042249 L7.06217401,6.519641 L7.52073024,6.47676078 L7.99417731,6.44174951 L8.48159062,6.41457482 L8.48159062,6.41457482 L8.7302457,6.40391609 L9.23687482,6.38843564 C9.32230992,6.38650277 9.40823064,6.38489306 9.49461772,6.38360583 L9.49461772,6.38360583 L10.0183824,6.37974684 Z M12.8234118,11.0377468 L12.5160345,11.067543 L12.0425874,11.1025543 L11.5551741,11.129729 C11.472826,11.1336068 11.3899346,11.1371595 11.306519,11.1403877 L11.306519,11.1403877 L10.7998899,11.1558682 L10.7998899,11.1558682 L10.542147,11.160698 L10.0183824,11.164557 L9.49461772,11.160698 C9.32184356,11.1581235 9.15093483,11.1542591 8.98204562,11.1490994 L8.98204562,11.1490994 L8.48159062,11.129729 L7.99417731,11.1025543 L7.52073024,11.067543 L7.21241176,11.0377468 L7.21229125,12.6137288 C7.4715082,12.6422242 7.73932621,12.6667835 8.0141503,12.6871911 L8.01470588,11.164557 L9.61764706,11.164557 L9.61741176,12.7561519 L10.0183824,12.7594937 C10.1527506,12.7594937 10.2864454,12.7585521 10.4193212,12.756689 L10.4191176,11.164557 L12.0220588,11.164557 L12.0229256,12.6871617 C12.297789,12.6667485 12.5656089,12.6421865 12.824784,12.6136959 L12.8234118,11.0377468 Z M4.00574271,10.3811459 L4.00494853,11.806519 L4.06927077,11.8501211 L4.18096797,11.9126974 C4.46686952,12.0601034 4.90597432,12.2054841 5.46185156,12.3312856 C5.50987151,12.342153 5.55857084,12.3528368 5.60792951,12.3633341 L5.60943614,10.8162667 C5.0004243,10.7005928 4.46061274,10.5557361 4.00574271,10.3811459 Z M16.0300108,10.3815339 C15.532071,10.5725543 14.9324128,10.7279641 14.2516687,10.8484851 L14.4264118,10.8157468 L14.4264118,12.3621519 L14.651979,12.3135465 C15.1276887,12.2021737 15.5123083,12.076527 15.7812056,11.9495141 L15.9058966,11.8859536 L15.9919927,11.8346569 L16.0294118,11.8081139 Z M10.0183824,7.97468354 C8.24512348,7.97468354 6.58915912,8.13866384 5.3847857,8.42063072 C4.96853969,8.51808188 4.6220346,8.62646155 4.36177201,8.73712251 L4.36177201,8.73712251 L4.28386029,8.7721519 L4.36177201,8.80718129 C4.5786575,8.89939875 4.85543362,8.99003199 5.18255083,9.07407682 L5.18255083,9.07407682 L5.3847857,9.12367307 C6.58915912,9.40563996 8.24512348,9.56962025 10.0183824,9.56962025 C11.7916412,9.56962025 13.4476056,9.40563996 14.651979,9.12367307 C15.068225,9.02622191 15.4147301,8.91784224 15.6749927,8.80718129 L15.6749927,8.80718129 L15.7521029,8.7721519 L15.6749927,8.73712251 C15.4581072,8.64490505 15.1813311,8.55427181 14.8542139,8.47022698 L14.8542139,8.47022698 L14.651979,8.42063072 C13.4476056,8.13866384 11.7916412,7.97468354 10.0183824,7.97468354 Z" id="Combined-Shape" fill="#272727" fill-rule="nonzero"></path>
                </g>
                <text id="Income" font-family="LucidaGrande-Bold, Lucida Grande" font-size="13.6" font-weight="bold" fill="#272727">
                    <tspan x="44.0808824" y="32.9113924">Income</tspan>
                </text>
                <text id="The-amount-you-could" font-family="LucidaGrande, Lucida Grande" font-size="9.6" font-weight="normal" fill="#A29E9F">
                    <tspan x="44.0808824" y="44.0712025">To add additional available money</tspan>
                </text>
            </g>
        </g>
        <g id="Layer2" transform="translate(38.000000, 237.000000)">
            <ellipse id="Oval" fill-opacity="0.329873252" fill="#6D7278" filter="url(#filter-1)" cx="135.5" cy="79" rx="135.5" ry="22"></ellipse>
            <path d="M12,0 L259,0 C265.627417,-1.21743675e-15 271,5.372583 271,12 L271,67 C271,73.627417 265.627417,79 259,79 L12,79 C5.372583,79 8.11624501e-16,73.627417 0,67 L0,12 C-8.11624501e-16,5.372583 5.372583,2.99379359e-15 12,0 Z"  fill="#33E1ED"></path>
            <g id="Icon/-Light/-Color" transform="translate(18.930147, 30.000000)" fill="#FFFFFF">
                <rect  fill-opacity="0" x="0" y="0" width="24" height="24"></rect>
                <path d="M12.5,8 L13.1535045,8.00483906 C13.3690759,8.00806735 13.5823198,8.01291316 13.793044,8.01938327 L13.793044,8.01938327 L14.4174649,8.04367319 L15.0256136,8.07774938 L15.6163366,8.12165241 L16.1884801,8.17542284 C16.282225,8.18520911 16.3751477,8.19540821 16.4672241,8.206021 L16.4672241,8.206021 L17.0093356,8.27466856 C17.097931,8.28693943 17.185632,8.29962566 17.2724147,8.31272811 L17.2724147,8.31272811 L17.7818986,8.39634407 C20.3553078,8.85423487 22,9.71372898 22,11 L22,11 L22,15 C22,16.2419168 20.4667793,17.0859822 18.0447711,17.5548543 L17.7818986,17.6036559 L17.2724147,17.6872719 L17.0093356,17.7253314 L16.7408907,17.7608988 L16.1884801,17.8245772 L15.6163366,17.8783476 L15.0256136,17.9222506 L14.4174649,17.9563268 L14.2628401,17.9633152 L14.1072164,17.9696925 L13.475092,17.9891045 L13.1535045,17.9951609 L12.5,18 L12.3313379,17.9996764 L12.1635268,17.998705 L11.5011838,17.9883238 L11.3379216,17.9841003 L11.175628,17.9792239 L10.5365323,17.9531704 L10.3793761,17.9450158 L10.2233063,17.936203 L9.61028247,17.8943523 L9.45993852,17.8822354 L9.31079859,17.869455 L8.72667148,17.8116821 L8.16337813,17.743225 L7.62217398,17.6640282 L7.36024768,17.6203851 L7.10431447,17.5740362 L6.61105504,17.4731933 C4.61547544,17.0318083 3.28873545,16.3082958 3.03543444,15.2847626 L3.00851599,15.1495553 L3,15 L3,11 L3.00583756,10.8684588 C3.11453135,9.65493105 4.73343041,8.83844553 7.21810144,8.39634407 L7.21810144,8.39634407 L7.72758528,8.31272811 C7.90115067,8.28652322 8.07838943,8.26198317 8.25910928,8.23910121 L8.25910928,8.23910121 L8.81151986,8.17542284 L9.38366342,8.12165241 L9.97438636,8.07774938 L10.5825351,8.04367319 C10.6852813,8.03881047 10.7887055,8.03435552 10.8927836,8.03030748 L10.8927836,8.03030748 L11.524908,8.01089548 L11.524908,8.01089548 L11.8464955,8.00483906 L12.5,8 Z M16,13.842 L15.6163366,13.8783476 L15.0256136,13.9222506 L14.4174649,13.9563268 C14.3147187,13.9611895 14.2112945,13.9656445 14.1072164,13.9696925 L14.1072164,13.9696925 L13.475092,13.9891045 L13.475092,13.9891045 L13.1535045,13.9951609 L12.5,14 L11.8464955,13.9951609 C11.6309241,13.9919327 11.4176802,13.9870868 11.206956,13.9806167 L11.206956,13.9806167 L10.5825351,13.9563268 L9.97438636,13.9222506 L9.38366342,13.8783476 L9,13.842 L9.0001638,15.8173637 C9.32327578,15.8530443 9.65709379,15.8837994 9.99963409,15.9093593 L10,14 L12,14 L12.0003086,15.9964922 C12.1659188,15.9988226 12.3325428,16 12.5,16 C12.66785,16 12.8348577,15.9988165 13.000841,15.9964748 L13,14 L15,14 L15.0015514,15.9092629 C15.3443194,15.8836736 15.6783071,15.8528871 16.0015197,15.8171793 L16,13.842 Z M4.99871934,13.0179083 L4.997,14.805 L5.07725527,14.8596757 L5.21662058,14.9381444 C5.57334179,15.1229868 6.12121567,15.3052896 6.81478727,15.4630406 L6.99861312,15.5035626 L6.99972966,13.5634078 C6.23985944,13.4183933 5.56631068,13.2367902 4.99871934,13.0179083 Z M20.0002821,13.0182933 C19.3790911,13.2577447 18.6310554,13.4525641 17.7818986,13.6036559 L18,13.562 L18,15.503 L18.2813683,15.4407964 C18.8872799,15.298229 19.3747528,15.1370088 19.7110923,14.9743549 L19.8458894,14.9046085 L19.953312,14.8402841 L20,14.807 Z M12.5,10 C10.2874935,10 8.22133615,10.2056261 6.71863169,10.5592036 C6.19927888,10.6814043 5.76694226,10.8173089 5.44221094,10.9560743 L5.44221094,10.9560743 L5.345,11 L5.44221094,11.0439257 C5.71282037,11.1595635 6.05815571,11.2732147 6.46630196,11.3786043 L6.46630196,11.3786043 L6.71863169,11.4407964 C8.22133615,11.7943739 10.2874935,12 12.5,12 C14.7125065,12 16.7786639,11.7943739 18.2813683,11.4407964 C18.8007211,11.3185957 19.2330577,11.1826911 19.5577891,11.0439257 L19.5577891,11.0439257 L19.654,11 L19.5577891,10.9560743 C19.2871796,10.8404365 18.9418443,10.7267853 18.533698,10.6213957 L18.533698,10.6213957 L18.2813683,10.5592036 C16.7786639,10.2056261 14.7125065,10 12.5,10 Z" id="Combined-Shape" fill-rule="nonzero"></path>
            </g>
            <text id="Income" font-family="LucidaGrande-Bold, Lucida Grande" font-size="17" font-weight="bold" fill="#FFFFFF">
                <tspan x="55" y="41">Budget</tspan>
            </text>
            <text id="To-set-various-expen" font-family="LucidaGrande, Lucida Grande" font-size="12" font-weight="normal" fill="#FFFFFF">
                <tspan x="55" y="56">To set various expense limitation</tspan>
            </text>
        </g>
    </g>
</svg>