<?xml version="1.0" encoding="UTF-8"?>
<svg width="500px" height="500px" viewBox="0 0 500 500" version="1.1" xmlns="http://www.w3.org/2000/svg" xmlns:xlink="http://www.w3.org/1999/xlink">
    <title>Research-what-3</title>
    <defs>
        <filter x="-13.2%" y="-68.2%" width="126.4%" height="236.4%" filterUnits="objectBoundingBox" id="filter-1">
            <feGaussianBlur stdDeviation="10" in="SourceGraphic"></feGaussianBlur>
        </filter>
    </defs>
    <g id="Research-what-3" stroke="none" stroke-width="1" fill="none" fill-rule="evenodd">
        <rect fill="#FFFFFF" x="0" y="0" width="500" height="500"></rect>
        <g id="Background" transform="translate(105.000000, 66.000000)">
            <path d="M30,0 L259,0 C275.568542,-3.04359188e-15 289,13.4314575 289,30 L289,368 L289,368 L0,368 L0,30 C-2.02906125e-15,13.4314575 13.4314575,3.04359188e-15 30,0 Z" id="Rectangle" fill="#DBDBDF"></path>
            <path d="M259,0 C275.568542,-3.04359188e-15 289,13.4314575 289,30 L289,368 L281,368 L281,32 C281,18.8777143 270.468663,8.21515429 257.396884,8.00321531 L257,8 L186.958888,8.00046689 C186.450515,14.1597751 181.290505,19 175,19 L114,19 C107.709495,19 102.549485,14.1597751 102.041112,8.00046689 L31,8 C17.8777143,8 7.21515429,18.5313372 7.00321531,31.6031161 L7,32 L7,368 L0,368 L0,30 C-2.02906125e-15,13.4314575 13.4314575,3.04359188e-15 30,0 L259,0 Z" id="Combined-Shape" fill="#F3F3F3"></path>
            <text id="Transactions" opacity="0.212053571" font-family="Krungthep" font-size="24" font-weight="bold" fill="#272727">
                <tspan x="61" y="89">Transactions</tspan>
            </text>
        </g>
        <g id="Layer1" transform="translate(136.000000, 153.000000)">
            <ellipse id="Oval" fill-opacity="0.329873252" fill="#6D7278" filter="url(#filter-1)" cx="113.5" cy="215" rx="113.5" ry="22"></ellipse>
            <rect id="Rectangle" fill="#FFFFFF" x="0" y="0" width="227" height="218" rx="30"></rect>
        </g>
        <g id="Text" transform="translate(157.000000, 181.000000)">
            <rect id="Rectangle" fill="#F3F3F3" x="3" y="0" width="60.6" height="17.4" rx="8.7"></rect>
            <text id="October" font-family="LucidaGrande, Lucida Grande" font-size="9" font-weight="normal" fill="#272727">
                <tspan x="16.2" y="12.6">October</tspan>
            </text>
            <g id="List/-Expense" transform="translate(0.000000, 31.200000)">
                <g id="Group" transform="translate(33.000000, 9.600000)" font-weight="normal">
                    <text id="Supermarket" font-family="Roboto-Regular, Roboto" font-size="9.6" line-spacing="14.4" fill="#000000" fill-opacity="0.87">
                        <tspan x="0" y="9">Supermarket</tspan>
                    </text>
                    <text id="11-Oct.-13:00" font-family="LucidaGrande, Lucida Grande" font-size="7.2" fill="#A29E9F">
                        <tspan x="0" y="20.8">11 Oct. 13:00</tspan>
                    </text>
                </g>
                <text id="--$300" font-family="Roboto-Regular, Roboto" font-size="9.6" font-weight="normal" line-spacing="14.4" fill="#000000" fill-opacity="0.87">
                    <tspan x="157.6125" y="22.8">- $300</tspan>
                </text>
                <g id="Icon/-Bread" transform="translate(6.000000, 13.800000)">
                    <rect id="Rectangle" fill="#C3B3EF" x="0" y="0" width="14.4" height="14.4" rx="7.2"></rect>
                    <path d="M7.2,5.2 C9.6,5.2 11.2,6.52 11.2,7.84 C11.2,8.76888889 10.3131676,9.26200274 9.01781132,9.47266982 L8.80995619,9.50360819 L8.70361317,9.51735889 L8.70361317,9.51735889 L8.48635773,9.54150714 L8.26335845,9.5612963 L8.03503372,9.57686049 L7.80180194,9.58833384 L7.68347667,9.59257837 L7.68347667,9.59257837 L7.44366885,9.59816695 L7.2,9.6 L6.95633115,9.59816695 L6.71652333,9.59257837 L6.48099494,9.58310014 C6.44212007,9.58118884 6.40344095,9.57910989 6.36496628,9.57686049 L6.13664155,9.5612963 L5.91364227,9.54150714 L5.69638683,9.51735889 L5.59004381,9.50360819 L5.59004381,9.50360819 L5.38218868,9.47266982 C4.0868324,9.26200274 3.2,8.76888889 3.2,7.84 C3.2,6.52 4.8,5.2 7.2,5.2 Z M6.20052513,6.09430345 L6.2,7.1 C6.2,7.37614237 5.97614237,7.6 5.7,7.6 C5.42385763,7.6 5.2,7.37614237 5.2,7.1 L5.19987305,6.41832685 C4.4517503,6.77580444 4,7.31429866 4,7.84 C4,8.27486177 4.68838925,8.62533601 6.03305178,8.75051773 L6.26998817,8.76974421 L6.39326672,8.77765295 L6.39326672,8.77765295 L6.64942209,8.78996281 C6.82445223,8.79658416 7.00799418,8.8 7.2,8.8 C7.39200582,8.8 7.57554777,8.79658416 7.75057791,8.78996281 L8.00673328,8.77765295 L8.13001183,8.76974421 L8.13001183,8.76974421 L8.36694822,8.75051773 C9.71161075,8.62533601 10.4,8.27486177 10.4,7.84 C10.4,7.31452974 9.94864676,6.77627784 9.20111331,6.41879835 L9.2,7.2 C9.2,7.4209139 9.0209139,7.6 8.8,7.6 C8.5790861,7.6 8.4,7.4209139 8.4,7.2 L8.40063855,6.13823195 C8.21063308,6.09231161 8.01012,6.05671994 7.80046336,6.03315835 L7.8,7.1 C7.8,7.37614237 7.57614237,7.6 7.3,7.6 C7.02385763,7.6 6.8,7.37614237 6.8,7.1 L6.79963077,6.01457912 C6.59135854,6.02990616 6.39124485,6.0569946 6.20052513,6.09430345 Z" id="Combined-Shape" fill="#FFFFFF" fill-rule="nonzero"></path>
                </g>
            </g>
            <g id="List/-Expense" transform="translate(0.000000, 73.200000)">
                <g id="Group" transform="translate(33.000000, 9.600000)" font-weight="normal">
                    <text id="Supermarket" font-family="Roboto-Regular, Roboto" font-size="9.6" line-spacing="14.4" fill="#000000" fill-opacity="0.87">
                        <tspan x="0" y="9">Supermarket</tspan>
                    </text>
                    <text id="11-Oct.-13:00" font-family="LucidaGrande, Lucida Grande" font-size="7.2" fill="#A29E9F">
                        <tspan x="0" y="20.8">11 Oct. 13:00</tspan>
                    </text>
                </g>
                <text id="--$300" font-family="Roboto-Regular, Roboto" font-size="9.6" font-weight="normal" line-spacing="14.4" fill="#000000" fill-opacity="0.87">
                    <tspan x="157.6125" y="22.8">- $300</tspan>
                </text>
                <g id="Icon/-Bread" transform="translate(6.000000, 13.800000)">
                    <rect id="Rectangle" fill="#C3B3EF" x="0" y="0" width="14.4" height="14.4" rx="7.2"></rect>
                    <path d="M7.2,5.2 C9.6,5.2 11.2,6.52 11.2,7.84 C11.2,8.76888889 10.3131676,9.26200274 9.01781132,9.47266982 L8.80995619,9.50360819 L8.70361317,9.51735889 L8.70361317,9.51735889 L8.48635773,9.54150714 L8.26335845,9.5612963 L8.03503372,9.57686049 L7.80180194,9.58833384 L7.68347667,9.59257837 L7.68347667,9.59257837 L7.44366885,9.59816695 L7.2,9.6 L6.95633115,9.59816695 L6.71652333,9.59257837 L6.48099494,9.58310014 C6.44212007,9.58118884 6.40344095,9.57910989 6.36496628,9.57686049 L6.13664155,9.5612963 L5.91364227,9.54150714 L5.69638683,9.51735889 L5.59004381,9.50360819 L5.59004381,9.50360819 L5.38218868,9.47266982 C4.0868324,9.26200274 3.2,8.76888889 3.2,7.84 C3.2,6.52 4.8,5.2 7.2,5.2 Z M6.20052513,6.09430345 L6.2,7.1 C6.2,7.37614237 5.97614237,7.6 5.7,7.6 C5.42385763,7.6 5.2,7.37614237 5.2,7.1 L5.19987305,6.41832685 C4.4517503,6.77580444 4,7.31429866 4,7.84 C4,8.27486177 4.68838925,8.62533601 6.03305178,8.75051773 L6.26998817,8.76974421 L6.39326672,8.77765295 L6.39326672,8.77765295 L6.64942209,8.78996281 C6.82445223,8.79658416 7.00799418,8.8 7.2,8.8 C7.39200582,8.8 7.57554777,8.79658416 7.75057791,8.78996281 L8.00673328,8.77765295 L8.13001183,8.76974421 L8.13001183,8.76974421 L8.36694822,8.75051773 C9.71161075,8.62533601 10.4,8.27486177 10.4,7.84 C10.4,7.31452974 9.94864676,6.77627784 9.20111331,6.41879835 L9.2,7.2 C9.2,7.4209139 9.0209139,7.6 8.8,7.6 C8.5790861,7.6 8.4,7.4209139 8.4,7.2 L8.40063855,6.13823195 C8.21063308,6.09231161 8.01012,6.05671994 7.80046336,6.03315835 L7.8,7.1 C7.8,7.37614237 7.57614237,7.6 7.3,7.6 C7.02385763,7.6 6.8,7.37614237 6.8,7.1 L6.79963077,6.01457912 C6.59135854,6.02990616 6.39124485,6.0569946 6.20052513,6.09430345 Z" id="Combined-Shape" fill="#FFFFFF" fill-rule="nonzero"></path>
                </g>
            </g>
            <g id="List/-Expense" transform="translate(0.000000, 115.200000)">
                <g id="Group" transform="translate(33.000000, 9.600000)" font-weight="normal">
                    <text id="Supermarket" font-family="Roboto-Regular, Roboto" font-size="9.6" line-spacing="14.4" fill="#000000" fill-opacity="0.87">
                        <tspan x="0" y="9">Water fee</tspan>
                    </text>
                    <text id="11-Oct.-13:00" font-family="LucidaGrande, Lucida Grande" font-size="7.2" fill="#A29E9F">
                        <tspan x="0" y="20.8">11 Oct. 13:00</tspan>
                    </text>
                </g>
                <text id="--$300" font-family="Roboto-Regular, Roboto" font-size="9.6" font-weight="normal" line-spacing="14.4" fill="#000000" fill-opacity="0.87">
                    <tspan x="157.6125" y="22.8">- $300</tspan>
                </text>
                <g id="Icon/-Color/-Utility" transform="translate(6.000000, 13.800000)">
                    <circle id="Oval" fill="#FDC2B1" cx="7.2" cy="7.2" r="7.2"></circle>
                    <g id="Icon/-Light/-Utility" transform="translate(2.400000, 2.400000)">
                        <rect id="Rectangle" fill-opacity="0" fill="#FFFFFF" x="0" y="0" width="9.6" height="9.6"></rect>
                        <path d="M5.59976501,2.2139156 C6.07813569,2.49052968 6.4,3.00767712 6.4,3.6 C6.4,4.27878357 5.97731344,4.8588434 5.38079365,5.09132616 C5.38830444,5.11104097 5.39352725,5.13193836 5.39663613,5.15335155 L5.4,5.2 L5.4,8 C5.4,8.2209139 5.17614237,8.4 4.9,8.4 C4.64358208,8.4 4.43224642,8.24558392 4.40336387,8.04664845 L4.4,8 L4.4,5.2 L4.40619046,5.15117305 C3.71296072,4.97571823 3.2,4.34776331 3.2,3.6 C3.2,3.00807951 3.52142714,2.49123236 3.99926027,2.21447969 L4,3.2 L5.6,3.2 L5.59976501,2.2139156 Z" id="Combined-Shape" stroke="#FFFFFF" stroke-width="1.2"></path>
                    </g>
                </g>
            </g>
        </g>
    </g>
</svg>