<?xml version="1.0" encoding="UTF-8"?>
<svg width="500px" height="500px" viewBox="0 0 500 500" version="1.1" xmlns="http://www.w3.org/2000/svg" xmlns:xlink="http://www.w3.org/1999/xlink">
    <title>Research-what-1</title>
    <defs>
        <filter x="-9.9%" y="-68.2%" width="119.8%" height="236.4%" filterUnits="objectBoundingBox" >
            <feGaussianBlur stdDeviation="10" in="SourceGraphic"></feGaussianBlur>
        </filter>
        <rect id="path-2" x="0" y="0" width="307" height="175" rx="15"></rect>
        <filter x="-3.4%" y="-5.4%" width="107.5%" height="113.1%" filterUnits="objectBoundingBox" id="filter-3">
            <feOffset dx="1" dy="2" in="SourceAlpha" result="shadowOffsetOuter1"></feOffset>
            <feGaussianBlur stdDeviation="3.5" in="shadowOffsetOuter1" result="shadowBlurOuter1"></feGaussianBlur>
            <feColorMatrix values="0 0 0 0 0   0 0 0 0 0   0 0 0 0 0  0 0 0 0.1 0" type="matrix" in="shadowBlurOuter1"></feColorMatrix>
        </filter>
    </defs>
    <g id="Research-what-1" stroke="none" stroke-width="1" fill="none" fill-rule="evenodd">
        <rect fill="#FFFFFF" x="0" y="0" width="500" height="500"></rect>
        <g id="Background" transform="translate(106.000000, 66.000000)">
            <path d="M30,0 L259,0 C275.568542,-3.04359188e-15 289,13.4314575 289,30 L289,368 L289,368 L0,368 L0,30 C-2.02906125e-15,13.4314575 13.4314575,3.04359188e-15 30,0 Z"  fill="#DBDBDF"></path>
            <path d="M259,0 C275.568542,-3.04359188e-15 289,13.4314575 289,30 L289,368 L281,368 L281,32 C281,18.8777143 270.468663,8.21515429 257.396884,8.00321531 L257,8 L186.958888,8.00046689 C186.450515,14.1597751 181.290505,19 175,19 L114,19 C107.709495,19 102.549485,14.1597751 102.041112,8.00046689 L31,8 C17.8777143,8 7.21515429,18.5313372 7.00321531,31.6031161 L7,32 L7,368 L0,368 L0,30 C-2.02906125e-15,13.4314575 13.4314575,3.04359188e-15 30,0 L259,0 Z" id="Combined-Shape" fill="#F3F3F3"></path>
            <text id="Your-budget" opacity="0.21" font-family="Krungthep" font-size="20" font-weight="bold" fill="#272727">
                <tspan x="62" y="94">Your budget</tspan>
            </text>
        </g>
        <g id="Layer1" transform="translate(38.000000, 161.000000)">
            <ellipse id="Oval" fill-opacity="0.232408217" fill="#161535" filter="url(#filter-1)" cx="154.5" cy="175" rx="151.5" ry="22"></ellipse>
            <g >
                <use fill="black" fill-opacity="1" filter="url(#filter-3)" xlink:href="#path-2"></use>
                <use fill="#FFFFFF" fill-rule="evenodd" xlink:href="#path-2"></use>
            </g>
            <line x1="-7.12299143e-15" y1="89.5" x2="307" y2="89.5" id="Path-4" stroke="#F3F3F3"></line>
            <g id="Frame/-Budget" transform="translate(0.000000, 90.000000)">
                <text id="Food" font-family="LucidaGrande, Lucida Grande" font-size="15" font-weight="normal" fill="#272727">
                    <tspan x="61" y="45">Living</tspan>
                </text>
                <g id="Icon/-Color/-Living" transform="translate(12.000000, 22.000000)">
                    <circle id="Oval" fill="#D186A0" cx="18" cy="18" r="18"></circle>
                    <g id="Icon/-Light/-Living" transform="translate(10.000000, 9.000000)" fill="#FFFFFF" fill-rule="nonzero">
                        <path d="M14,0 C15.1045695,0 16,0.8954305 16,2 L16,2 L16,16 C16,17.1045695 15.1045695,18 14,18 L14,18 L2,18 C0.8954305,18 0,17.1045695 0,16 L0,16 L0,2 C0,0.8954305 0.8954305,0 2,0 L2,0 Z M14,2 L2,2 L2,16 L14,16 L14,2 Z M9.5,11 C10.8807119,11 12,11.4477153 12,12 C12,12.5522847 10.8807119,13 9.5,13 C8.11928813,13 7,12.5522847 7,12 C7,11.4477153 8.11928813,11 9.5,11 Z M5,11 C5.55228475,11 6,11.4477153 6,12 C6,12.5522847 5.55228475,13 5,13 C4.44771525,13 4,12.5522847 4,12 C4,11.4477153 4.44771525,11 5,11 Z M9.5,8 C10.8807119,8 12,8.44771525 12,9 C12,9.55228475 10.8807119,10 9.5,10 C8.11928813,10 7,9.55228475 7,9 C7,8.44771525 8.11928813,8 9.5,8 Z M5,8 C5.55228475,8 6,8.44771525 6,9 C6,9.55228475 5.55228475,10 5,10 C4.44771525,10 4,9.55228475 4,9 C4,8.44771525 4.44771525,8 5,8 Z M5,5 C5.55228475,5 6,5.44771525 6,6 C6,6.55228475 5.55228475,7 5,7 C4.44771525,7 4,6.55228475 4,6 C4,5.44771525 4.44771525,5 5,5 Z M9.5,5 C10.8807119,5 12,5.44771525 12,6 C12,6.55228475 10.8807119,7 9.5,7 C8.11928813,7 7,6.55228475 7,6 C7,5.44771525 8.11928813,5 9.5,5 Z"></path>
                    </g>
                </g>
                <g id="Group-3" transform="translate(223.000000, 22.000000)" font-family="LucidaGrande, Lucida Grande" font-weight="normal">
                    <text id="Available" font-size="12" fill="#A29E9F">
                        <tspan x="4.61132812" y="32">Available</tspan>
                    </text>
                    <text id="$2,000" font-size="15" fill="#272727">
                        <tspan x="4.82958984" y="15">$2,000 </tspan>
                    </text>
                </g>
            </g>
            <g id="Frame/-Budget" transform="translate(0.000000, 7.000000)">
                <text id="Food" font-family="LucidaGrande, Lucida Grande" font-size="15" font-weight="normal" fill="#272727">
                    <tspan x="61" y="45">Food</tspan>
                </text>
                <g id="Icon/-Bread" transform="translate(12.000000, 22.000000)">
                    <rect  fill="#C3B3EF" x="0" y="0" width="36" height="36" rx="18"></rect>
                    <path d="M18,13 C24,13 28,16.3 28,19.6 C28,21.9222222 25.782919,23.1550069 22.5445283,23.6816745 L22.0248905,23.7590205 C21.9369277,23.7709521 21.8483013,23.7824087 21.7590329,23.7933972 L21.2158943,23.8537678 L20.6583961,23.9032407 L20.0875843,23.9421512 L19.5045049,23.9708346 C19.4063608,23.9747815 19.3077491,23.9783163 19.2086917,23.9814459 L18.6091721,23.9954174 L18,24 L17.3908279,23.9954174 L16.7913083,23.9814459 L16.2024874,23.9577503 C16.1053002,23.9529721 16.0086024,23.9477747 15.9124157,23.9421512 L15.3416039,23.9032407 L14.7841057,23.8537678 L14.2409671,23.7933972 C14.1516987,23.7824087 14.0630723,23.7709521 13.9751095,23.7590205 L13.4554717,23.6816745 C10.217081,23.1550069 8,21.9222222 8,19.6 C8,16.3 12,13 18,13 Z M19.0014262,15.0364848 L19,18 C19,18.5522847 18.5522847,19 18,19 C17.4477153,19 17,18.5522847 17,18 L16.999576,15.0364111 C16.2928056,15.0883965 15.6236122,15.1945582 14.9997201,15.3452618 L15,18 C15,18.5522847 14.5522847,19 14,19 C13.4477153,19 13,18.5522847 13,18 L13.0001877,16.0455758 C11.1295791,16.9392687 10,18.2856283 10,19.6 C10,20.6871544 11.7209731,21.56334 15.0826295,21.8762943 L15.6749704,21.9243605 C15.7763676,21.9314301 15.8791003,21.9380234 15.9831668,21.9441324 L16.6235552,21.974907 C17.0611306,21.9914604 17.5199855,22 18,22 C18.4800145,22 18.9388694,21.9914604 19.3764448,21.974907 L20.0168332,21.9441324 C20.1208997,21.9380234 20.2236324,21.9314301 20.3250296,21.9243605 L20.9173705,21.8762943 C24.2790269,21.56334 26,20.6871544 26,19.6 C26,18.285865 24.8708276,16.9397535 23.0008224,16.0460585 L23,18 C23,18.5522847 22.5522847,19 22,19 C21.4477153,19 21,18.5522847 21,18 L21.0012778,15.3455029 C20.3773962,15.1947427 19.7082039,15.0885246 19.0014262,15.0364848 Z" id="Combined-Shape" fill="#FFFFFF" fill-rule="nonzero"></path>
                </g>
                <g id="Group-3" transform="translate(223.000000, 22.000000)" font-family="LucidaGrande, Lucida Grande" font-weight="normal">
                    <text id="Available" font-size="12" fill="#A29E9F">
                        <tspan x="4.61132812" y="32">Available</tspan>
                    </text>
                    <text id="$2,000" font-size="15" fill="#272727">
                        <tspan x="4.82958984" y="15">$2,000 </tspan>
                    </text>
                </g>
            </g>
        </g>
    </g>
</svg>