<?xml version="1.0" encoding="UTF-8"?>
<svg width="102px" height="102px" viewBox="0 0 102 102" version="1.1" xmlns="http://www.w3.org/2000/svg" xmlns:xlink="http://www.w3.org/1999/xlink">
    <title>Scroll down</title>
    <defs>
        <path d="M38.7709386,15.4376052 C39.9099677,14.298576 41.7566989,14.298576 42.8957281,15.4376052 L42.8957281,15.4376052 L60.3957281,32.9376052 C60.4389915,32.9808686 60.480902,33.0254847 60.5213908,33.0713848 C60.529976,33.0810113 60.5383337,33.0906011 60.5466183,33.1002321 C60.5745319,33.1328481 60.6019801,33.1662558 60.6286885,33.2002719 C60.6453449,33.2211982 60.6613644,33.2421622 60.6770614,33.2632904 C60.6946421,33.2873132 60.712366,33.3119747 60.7297105,33.3369198 C60.7481996,33.3630866 60.7656739,33.3891077 60.7826838,33.4153422 C60.7954557,33.4355064 60.8084626,33.4561222 60.8212162,33.47691 C60.837435,33.5028805 60.8526858,33.5286495 60.867506,33.5545976 C60.885675,33.5868365 60.9037503,33.619913 60.9211957,33.65337 C60.9302107,33.6702895 60.9388861,33.6873627 60.9473826,33.7045022 C60.9610165,33.7323027 60.9741178,33.7597738 60.986798,33.7874778 C61.011585,33.8415228 61.0347133,33.8966062 61.0560766,33.9522121 C61.0852601,34.0278679 61.1112108,34.1046738 61.1339782,34.1828359 C61.1438027,34.217386 61.1531735,34.2519874 61.1618966,34.2867181 C61.1669539,34.3058211 61.1715484,34.3249203 61.175954,34.3440916 C61.1820228,34.3716338 61.1880178,34.3995888 61.1935985,34.42761 C61.2125815,34.5217284 61.2267711,34.6174059 61.2362023,34.7144768 C61.2373523,34.7275321 61.2385355,34.7405311 61.2396318,34.753536 C61.246528,34.8346898 61.25,34.9169394 61.25,35 L61.2479912,34.8914319 C61.2484849,34.9047686 61.2488876,34.9181081 61.2491993,34.9314493 L61.25,35 C61.25,35.0230788 61.249732,35.0460949 61.2491988,35.0690455 C61.2488876,35.0818919 61.2484849,35.0952314 61.2479912,35.1085681 C61.246329,35.1545534 61.2436035,35.1999458 61.2398518,35.2450468 C61.2386004,35.258808 61.2372958,35.2731407 61.2358854,35.287465 C61.2265434,35.3840105 61.2125101,35.4784586 61.1940684,35.5713192 C61.1882017,35.5995528 61.1821212,35.6279382 61.1756138,35.6562454 C61.1715484,35.6750797 61.1669539,35.6941789 61.1621724,35.7132038 C61.1531735,35.7480126 61.1438027,35.782614 61.1337841,35.8170671 C61.124769,35.8487799 61.115039,35.8801737 61.1047981,35.9113358 C61.0549544,36.0627809 60.9925966,36.2108769 60.9175259,36.3540451 C60.8993915,36.3881757 60.8808907,36.4217693 60.8617555,36.454951 C60.8539204,36.4690188 60.8458364,36.4827815 60.83763,36.4964912 C60.8169098,36.5306127 60.7956017,36.5645868 60.7736226,36.5980811 C60.7626192,36.6153057 60.7514221,36.6319818 60.7400342,36.6485662 C60.7169308,36.681804 60.693181,36.7149095 60.6687655,36.7474873 C60.6558837,36.7649916 60.6426156,36.7822721 60.6291278,36.7994362 C60.6085697,36.8253562 60.5878724,36.8508274 60.5667595,36.8759375 C60.5133977,36.9395257 60.4561664,37.0019565 60.3957281,37.0623948 L60.5109481,36.9403897 C60.5092024,36.9423474 60.5074542,36.9443027 60.5057033,36.9462557 L60.3957281,37.0623948 L42.8957281,54.5623948 C41.7566989,55.701424 39.9099677,55.701424 38.7709386,54.5623948 C37.6319094,53.4233656 37.6319094,51.5766344 38.7709386,50.4376052 L38.7709386,50.4376052 L51.291,37.9163333 L11.6666667,37.9166667 C10.1133658,37.9166667 8.84366303,36.7024389 8.75495123,35.1713763 L8.75,35 C8.75,33.3891695 10.0558361,32.0833333 11.6666667,32.0833333 L11.6666667,32.0833333 L51.291,32.0823333 L38.7709386,19.5623948 C37.6774705,18.4689268 37.6337318,16.7232406 38.6397224,15.5775951 Z" id="path-1"></path>
    </defs>
    <g id="Wireframe" stroke="none" stroke-width="1" fill="none" fill-rule="evenodd">
        <g id="About-me" transform="translate(-643.000000, -2000.000000)">
            <g id="Scroll-down" transform="translate(643.000000, 2000.000000)">
                <circle id="Oval" fill="#FF7B42" cx="51" cy="51" r="51"></circle>
                <g id="Group" transform="translate(16.000000, 16.000000)">
                    <g id="arrow-right" transform="translate(35.000000, 35.000000) scale(1, -1) rotate(-90.000000) translate(-35.000000, -35.000000) ">
                        <mask id="mask-2" fill="white">
                            <use xlink:href="#path-1"></use>
                        </mask>
                        <use id="Combined-Shape" fill="#000000" fill-rule="nonzero" xlink:href="#path-1"></use>
                        <g id="Group" mask="url(#mask-2)" fill="#FFFFFF">
                            <g id="🎨Color">
                                <rect  x="0" y="0" width="70" height="70"></rect>
                            </g>
                        </g>
                    </g>
                </g>
            </g>
        </g>
    </g>
</svg>